<svg width="16" height="12" viewBox="0 0 16 12" fill="none" xmlns="http://www.w3.org/2000/svg">
  <path d="M4 7C4 7.26522 3.89464 7.51957 3.70711 7.70711C3.51957 7.89464 3.26522 8 3 8C2.73478 8 2.48043 7.89464 2.29289 7.70711C2.10536 7.51957 2 7.26522 2 7C2 6.73478 2.10536 6.48043 2.29289 6.29289C2.48043 6.10536 2.73478 6 3 6C3.26522 6 3.51957 6.10536 3.70711 6.29289C3.89464 6.48043 4 6.73478 4 7ZM14 7C14 7.26522 13.8946 7.51957 13.7071 7.70711C13.5196 7.89464 13.2652 8 13 8C12.7348 8 12.4804 7.89464 12.2929 7.70711C12.1054 7.51957 12 7.26522 12 7C12 6.73478 12.1054 6.48043 12.2929 6.29289C12.4804 6.10536 12.7348 6 13 6C13.2652 6 13.5196 6.10536 13.7071 6.29289C13.8946 6.48043 14 6.73478 14 7ZM6 6C5.73478 6 5.48043 6.10536 5.29289 6.29289C5.10536 6.48043 5 6.73478 5 7C5 7.26522 5.10536 7.51957 5.29289 7.70711C5.48043 7.89464 5.73478 8 6 8H10C10.2652 8 10.5196 7.89464 10.7071 7.70711C10.8946 7.51957 11 7.26522 11 7C11 6.73478 10.8946 6.48043 10.7071 6.29289C10.5196 6.10536 10.2652 6 10 6H6ZM4.862 2.276L3.906 4.19C3.86691 4.27065 3.84977 4.36018 3.8563 4.44957C3.86283 4.53896 3.8928 4.62505 3.94319 4.69917C3.99358 4.77329 4.06262 4.83282 4.14334 4.87176C4.22406 4.9107 4.31362 4.92769 4.403 4.921C5.313 4.848 6.753 4.751 8 4.751C9.247 4.751 10.688 4.848 11.597 4.921C11.6864 4.92769 11.7759 4.9107 11.8567 4.87176C11.9374 4.83282 12.0064 4.77329 12.0568 4.69917C12.1072 4.62505 12.1372 4.53896 12.1437 4.44957C12.1502 4.36018 12.1331 4.27065 12.094 4.19L11.138 2.277C11.0966 2.19387 11.0328 2.12391 10.9539 2.07499C10.8749 2.02606 10.7839 2.0001 10.691 2H5.309C5.21622 2 5.12527 2.02582 5.04633 2.07456C4.96739 2.12331 4.90356 2.19305 4.862 2.276Z" fill="#0b44cd" />
  <path d="M2.52 1.515C2.7129 1.065 3.0337 0.681548 3.44257 0.412225C3.85144 0.142902 4.3304 -0.00043446 4.82 9.89209e-07H11.182C12.182 9.89209e-07 13.086 0.596001 13.48 1.515L14.272 3.363C14.347 3.538 14.482 3.682 14.652 3.767C15.152 4.017 15.507 4.482 15.617 5.029L15.952 6.708C15.9853 6.86933 16.0017 7.03267 16.001 7.198V7.611C16.001 8.425 15.611 9.154 15.001 9.608V11.5C15.001 11.6326 14.9483 11.7598 14.8546 11.8536C14.7608 11.9473 14.6336 12 14.501 12H12.501C12.3684 12 12.2412 11.9473 12.1474 11.8536C12.0537 11.7598 12.001 11.6326 12.001 11.5V10.162C10.709 10.21 9.256 10.25 8.001 10.25C6.746 10.25 5.293 10.21 4.001 10.162V11.5C4.001 11.6326 3.94832 11.7598 3.85455 11.8536C3.76078 11.9473 3.63361 12 3.501 12H1.501C1.36839 12 1.24121 11.9473 1.14745 11.8536C1.05368 11.7598 1.001 11.6326 1.001 11.5V9.608C0.390999 9.154 0.000999451 8.425 0.000999451 7.611V7.198C0.00116728 7.03345 0.0175802 6.86932 0.0499995 6.708L0.384999 5.028C0.494999 4.482 0.849999 4.016 1.349 3.767C1.52016 3.68215 1.65531 3.53884 1.73 3.363L2.522 1.515H2.52ZM4.82 1C4.5263 1.00002 4.23906 1.08626 3.99392 1.24803C3.74878 1.4098 3.55652 1.63997 3.441 1.91L2.649 3.757C2.48102 4.15006 2.17865 4.47051 1.796 4.661C1.68579 4.71563 1.58966 4.79493 1.51508 4.89275C1.44051 4.99056 1.38949 5.10426 1.366 5.225L1.03 6.904C1.01035 7.00077 1.0003 7.09925 0.999999 7.198V7.611C0.999999 8.407 1.62 9.059 2.408 9.095C3.963 9.165 6.194 9.25 8 9.25C9.806 9.25 12.037 9.166 13.592 9.095C13.9726 9.07647 14.3314 8.91185 14.5937 8.63542C14.8559 8.35899 15.0015 7.99205 15 7.611V7.198C15 7.09933 14.99 7.00133 14.97 6.904L14.635 5.224C14.6114 5.10344 14.5603 4.98994 14.4857 4.89231C14.4111 4.79468 14.3151 4.71553 14.205 4.661C13.8223 4.47051 13.52 4.15006 13.352 3.757L12.56 1.909C12.4443 1.639 12.2518 1.40893 12.0065 1.24734C11.7611 1.08574 11.4738 0.99974 11.18 1H4.82Z" fill="#0b44cd" />
</svg>